<svg width="21" height="22" viewBox="0 0 21 22" fill="none" xmlns="http://www.w3.org/2000/svg">
<g filter="url(#filter0_n_1_4657)">
<g filter="url(#filter1_n_1_4657)">
<path d="M3.76892 15.1604C-1.38706 10.9207 0.562865 6.81989 0.110403 1.1743C0.0895794 0.914476 0.311883 0.698302 0.56765 0.748551C3.6413 1.35242 8.83086 3.77579 9.94433 9.71256C10.4472 12.3937 10.1918 16.0689 10.187 20.6243C10.1869 20.755 10.019 20.8093 9.94106 20.7043C9.00394 19.442 8.67614 19.1955 3.76892 15.1604Z" fill="url(#paint0_linear_1_4657)"/>
<path d="M3.45544 14.7139C-0.964697 11.0603 0.511898 5.93865 0.333183 1.3678C0.323238 1.11343 0.543087 0.908146 0.79242 0.959484C3.67373 1.55274 8.74306 4.05779 9.77333 9.55093C10.2372 12.0243 10.2039 16.2955 10.2108 20.5501C10.211 20.6839 10.0348 20.7385 9.95618 20.6302C8.95041 19.2453 7.6722 18.1994 3.45544 14.7139Z" fill="url(#paint1_linear_1_4657)"/>
<g opacity="0.6">
<path d="M10.2128 20.6378L10.2005 15.7588C10.1989 15.1173 10.0614 14.4758 9.75016 13.9148C6.06394 7.27134 0.334983 8.70365 0.334983 8.70365C0.334983 8.70365 0.417658 12.3493 3.39035 14.7005C5.09009 16.0449 5.59453 16.615 7.29389 17.9599C8.64777 19.0313 9.52751 20.141 9.94012 20.7215C10.0198 20.8336 10.2132 20.7753 10.2128 20.6378Z" fill="url(#paint2_linear_1_4657)"/>
<path d="M10.2128 20.6378L10.2005 15.7588C10.1989 15.1173 10.0614 14.4758 9.75016 13.9148C6.06394 7.27134 0.334983 8.70365 0.334983 8.70365C0.334983 8.70365 0.417658 12.3493 3.39035 14.7005C5.09009 16.0449 5.59453 16.615 7.29389 17.9599C8.64777 19.0313 9.52751 20.141 9.94012 20.7215C10.0198 20.8336 10.2132 20.7753 10.2128 20.6378Z" fill="url(#paint3_radial_1_4657)"/>
</g>
<path d="M10.0366 14.5917C8.43198 11.1025 4.93369 8.07745 0.944118 8.63721C0.877365 8.64569 0.806954 8.62761 0.741589 8.63784C0.806972 8.62769 0.8775 8.64609 0.94427 8.63773C4.8618 8.18497 8.38028 11.1974 9.81636 14.6963C9.90272 14.8883 10.1288 15.3704 10.1288 15.3704L10.0663 14.9646C10.0663 14.9646 10.132 14.7828 10.0366 14.5917Z" fill="url(#paint4_linear_1_4657)"/>
<path d="M10.1013 14.5431C8.4966 11.0539 4.99915 8.0748 1.00958 8.63456C0.942825 8.64305 0.872414 8.62496 0.807049 8.6352C0.872431 8.62505 0.94296 8.64344 1.00973 8.63509C5.01211 8.08455 8.4449 11.1488 9.88098 14.6477C9.96735 14.8397 10.1935 15.3218 10.1935 15.3218L10.131 14.916C10.131 14.916 10.1967 14.7342 10.1013 14.5431Z" fill="#3F3F3F"/>
</g>
<path d="M0.597656 0.749908C3.67127 1.35381 8.86104 3.77731 9.97461 9.71378C10.4765 12.3898 10.2961 16.2097 10.2949 20.7626C10.2947 20.8957 10.122 20.9477 10.0469 20.8378C10.0102 20.7841 9.97266 20.7332 9.9375 20.6825C9.72548 20.3873 9.40228 19.9692 8.9668 19.494C8.20626 18.7244 6.90979 17.6645 3.82422 15.1874C-1.40869 10.9862 0.589287 6.82481 0.139648 1.17569C0.119137 0.915972 0.341975 0.699676 0.597656 0.749908Z" fill="url(#paint5_radial_1_4657)"/>
<g filter="url(#filter2_n_1_4657)">
<path d="M16.9587 15.0746C21.9969 11.1638 20.467 7.076 20.6627 1.05249C20.6692 0.853148 20.5315 0.675797 20.3321 0.678305C18.0911 0.706479 11.6606 3.75205 10.9469 9.75692C10.6095 12.5959 10.4906 16.1117 10.5995 20.6725C10.6024 20.7957 10.7548 20.8502 10.8338 20.7556C11.9618 19.4062 12.1276 18.8247 16.9587 15.0746Z" fill="url(#paint6_radial_1_4657)"/>
<path d="M16.9587 15.0746C21.9969 11.1638 20.467 7.076 20.6627 1.05249C20.6692 0.853148 20.5315 0.675797 20.3321 0.678305C18.0911 0.706479 11.6606 3.75205 10.9469 9.75692C10.6095 12.5959 10.4906 16.1117 10.5995 20.6725C10.6024 20.7957 10.7548 20.8502 10.8338 20.7556C11.9618 19.4062 12.1276 18.8247 16.9587 15.0746Z" fill="url(#paint7_radial_1_4657)"/>
<path d="M17.3961 14.56C21.8163 10.9064 20.3397 5.78479 20.5184 1.21394C20.5283 0.959567 20.3085 0.754284 20.0591 0.805622C17.1778 1.39888 12.1085 3.90393 11.0782 9.39706C10.6143 11.8704 10.6477 16.1417 10.6408 20.3963C10.6406 20.5301 10.8168 20.5846 10.8954 20.4764C11.9011 19.0914 13.1794 18.0455 17.3961 14.56Z" fill="url(#paint8_linear_1_4657)"/>
<path d="M10.6386 20.5303L10.6511 15.605C10.6527 14.9634 10.7901 14.322 11.1014 13.761C14.7876 7.11747 20.5166 8.54979 20.5166 8.54979C20.5166 8.54979 20.4039 12.2789 17.4312 14.63C15.7315 15.9744 15.3593 16.2636 13.6477 17.7104C12.2859 18.8616 11.3316 20.0387 10.8989 20.6151C10.8186 20.7221 10.6383 20.6641 10.6386 20.5303Z" fill="url(#paint9_linear_1_4657)"/>
<path d="M10.6386 20.5303L10.6511 15.605C10.6527 14.9634 10.7901 14.322 11.1014 13.761C14.7876 7.11747 20.5166 8.54979 20.5166 8.54979C20.5166 8.54979 20.4039 12.2789 17.4312 14.63C15.7315 15.9744 15.3593 16.2636 13.6477 17.7104C12.2859 18.8616 11.3316 20.0387 10.8989 20.6151C10.8186 20.7221 10.6383 20.6641 10.6386 20.5303Z" fill="url(#paint10_radial_1_4657)"/>
<path d="M10.8188 14.4379C12.4235 10.9486 15.9218 7.92358 19.9114 8.48335C19.9781 8.49183 20.0485 8.47375 20.1139 8.48398C20.0485 8.47383 19.978 8.49222 19.9112 8.48387C15.9937 8.03111 12.4752 11.0436 11.0391 14.5424C10.9527 14.7344 10.7266 15.2165 10.7266 15.2165L10.7891 14.8107C10.7891 14.8107 10.7234 14.6289 10.8188 14.4379Z" fill="url(#paint11_linear_1_4657)"/>
<path d="M10.8118 14.3497C12.4165 10.8604 15.8531 7.92194 19.8426 8.4817C19.9094 8.49018 19.9798 8.4721 20.0452 8.48234C19.9798 8.47218 19.9092 8.49058 19.8425 8.48222C15.8401 7.93169 12.4073 10.996 10.9712 14.4948C10.8849 14.6868 10.6587 15.1689 10.6587 15.1689L10.6587 14.8051C10.6587 14.8051 10.7164 14.5408 10.8118 14.3497Z" fill="url(#paint12_linear_1_4657)"/>
</g>
</g>
<defs>
<filter id="filter0_n_1_4657" x="0.107422" y="0.678276" width="20.6289" height="20.2191" filterUnits="userSpaceOnUse" color-interpolation-filters="sRGB">
<feFlood flood-opacity="0" result="BackgroundImageFix"/>
<feBlend mode="normal" in="SourceGraphic" in2="BackgroundImageFix" result="shape"/>
<feTurbulence type="fractalNoise" baseFrequency="37.003162384033203 37.003162384033203" stitchTiles="stitch" numOctaves="3" result="noise" seed="6270" />
<feColorMatrix in="noise" type="luminanceToAlpha" result="alphaNoise" />
<feComponentTransfer in="alphaNoise" result="coloredNoise1">
<feFuncA type="discrete" tableValues="0 0 0 0 1 1 1 1 1 1 1 1 1 1 1 1 1 1 1 1 1 1 1 1 1 1 1 1 1 1 1 1 1 1 1 1 1 1 1 1 1 1 1 1 1 1 1 0 0 0 0 0 0 0 0 0 0 0 0 0 0 0 0 0 0 0 0 0 0 0 0 0 0 0 0 0 0 0 0 0 0 0 0 0 0 0 0 0 0 0 0 0 0 0 0 0 0 0 0 0 "/>
</feComponentTransfer>
<feComposite operator="in" in2="shape" in="coloredNoise1" result="noise1Clipped" />
<feFlood flood-color="rgba(0, 0, 0, 0.25)" result="color1Flood" />
<feComposite operator="in" in2="noise1Clipped" in="color1Flood" result="color1" />
<feMerge result="effect1_noise_1_4657">
<feMergeNode in="shape" />
<feMergeNode in="color1" />
</feMerge>
</filter>
<filter id="filter1_n_1_4657" x="0.107422" y="0.741241" width="10.1484" height="20.0394" filterUnits="userSpaceOnUse" color-interpolation-filters="sRGB">
<feFlood flood-opacity="0" result="BackgroundImageFix"/>
<feBlend mode="normal" in="SourceGraphic" in2="BackgroundImageFix" result="shape"/>
<feTurbulence type="fractalNoise" baseFrequency="24.668773651123047 24.668773651123047" stitchTiles="stitch" numOctaves="3" result="noise" seed="5092" />
<feColorMatrix in="noise" type="luminanceToAlpha" result="alphaNoise" />
<feComponentTransfer in="alphaNoise" result="coloredNoise1">
<feFuncA type="discrete" tableValues="1 1 1 1 1 1 1 1 1 1 1 1 1 1 1 1 1 1 1 1 1 1 1 1 1 1 1 1 1 1 1 1 1 1 1 1 1 1 1 1 1 1 1 1 1 1 1 1 1 1 1 0 0 0 0 0 0 0 0 0 0 0 0 0 0 0 0 0 0 0 0 0 0 0 0 0 0 0 0 0 0 0 0 0 0 0 0 0 0 0 0 0 0 0 0 0 0 0 0 0 "/>
</feComponentTransfer>
<feComposite operator="in" in2="shape" in="coloredNoise1" result="noise1Clipped" />
<feFlood flood-color="rgba(131, 123, 123, 0.25)" result="color1Flood" />
<feComposite operator="in" in2="noise1Clipped" in="color1Flood" result="color1" />
<feMerge result="effect1_noise_1_4657">
<feMergeNode in="shape" />
<feMergeNode in="color1" />
</feMerge>
</filter>
<filter id="filter2_n_1_4657" x="10.5605" y="0.678276" width="10.1758" height="20.1253" filterUnits="userSpaceOnUse" color-interpolation-filters="sRGB">
<feFlood flood-opacity="0" result="BackgroundImageFix"/>
<feBlend mode="normal" in="SourceGraphic" in2="BackgroundImageFix" result="shape"/>
<feTurbulence type="fractalNoise" baseFrequency="24.668773651123047 24.668773651123047" stitchTiles="stitch" numOctaves="3" result="noise" seed="5092" />
<feColorMatrix in="noise" type="luminanceToAlpha" result="alphaNoise" />
<feComponentTransfer in="alphaNoise" result="coloredNoise1">
<feFuncA type="discrete" tableValues="1 1 1 1 1 1 1 1 1 1 1 1 1 1 1 1 1 1 1 1 1 1 1 1 1 1 1 1 1 1 1 1 1 1 1 1 1 1 1 1 1 1 1 1 1 1 1 1 1 1 1 0 0 0 0 0 0 0 0 0 0 0 0 0 0 0 0 0 0 0 0 0 0 0 0 0 0 0 0 0 0 0 0 0 0 0 0 0 0 0 0 0 0 0 0 0 0 0 0 0 "/>
</feComponentTransfer>
<feComposite operator="in" in2="shape" in="coloredNoise1" result="noise1Clipped" />
<feFlood flood-color="rgba(131, 123, 123, 0.25)" result="color1Flood" />
<feComposite operator="in" in2="noise1Clipped" in="color1Flood" result="color1" />
<feMerge result="effect1_noise_1_4657">
<feMergeNode in="shape" />
<feMergeNode in="color1" />
</feMerge>
</filter>
<linearGradient id="paint0_linear_1_4657" x1="0.481637" y1="0.187523" x2="10.6835" y2="21.6046" gradientUnits="userSpaceOnUse">
<stop stop-color="#F0F0F0"/>
<stop offset="1" stop-color="#686868"/>
</linearGradient>
<linearGradient id="paint1_linear_1_4657" x1="-1.23114" y1="2.05358" x2="10.0622" y2="18.905" gradientUnits="userSpaceOnUse">
<stop stop-color="#F2F2F2"/>
<stop offset="0.226398" stop-color="#D4D4D4"/>
<stop offset="0.730106" stop-color="#404040"/>
<stop offset="1" stop-color="#343434"/>
</linearGradient>
<linearGradient id="paint2_linear_1_4657" x1="2.24068" y1="8.36289" x2="10.9306" y2="19.4853" gradientUnits="userSpaceOnUse">
<stop stop-color="#D0CFCF"/>
<stop offset="0.270601" stop-color="#D6D6D6"/>
<stop offset="1" stop-color="#888888"/>
</linearGradient>
<radialGradient id="paint3_radial_1_4657" cx="0" cy="0" r="1" gradientUnits="userSpaceOnUse" gradientTransform="translate(1.94483 9.08074) rotate(84.8056) scale(10.4474 7.79521)">
<stop stop-color="#DBDBDB"/>
<stop offset="1" stop-color="#CBCBCA" stop-opacity="0"/>
</radialGradient>
<linearGradient id="paint4_linear_1_4657" x1="4.99783" y1="9.11021" x2="5.5743" y2="15.5491" gradientUnits="userSpaceOnUse">
<stop stop-color="#C8C8C8"/>
<stop offset="1" stop-color="#828282"/>
</linearGradient>
<radialGradient id="paint5_radial_1_4657" cx="0" cy="0" r="1" gradientTransform="matrix(4.39158 10.2018 -8.64808 3.72262 0.866238 7.39263)" gradientUnits="userSpaceOnUse">
<stop stop-color="white"/>
<stop offset="1" stop-color="#A5A5A5" stop-opacity="0"/>
</radialGradient>
<radialGradient id="paint6_radial_1_4657" cx="0" cy="0" r="1" gradientUnits="userSpaceOnUse" gradientTransform="translate(20.6756 5.77061) rotate(-152.21) scale(5.65141 25.1634)">
<stop stop-color="#3A3A3A"/>
<stop offset="1" stop-color="white"/>
</radialGradient>
<radialGradient id="paint7_radial_1_4657" cx="0" cy="0" r="1" gradientUnits="userSpaceOnUse" gradientTransform="translate(13.6492 4.01401) rotate(101.541) scale(13.1706 14.9088)">
<stop stop-color="white"/>
<stop offset="1" stop-color="#292929" stop-opacity="0.75"/>
</radialGradient>
<linearGradient id="paint8_linear_1_4657" x1="22.0827" y1="1.89972" x2="8.31092" y2="17.3043" gradientUnits="userSpaceOnUse">
<stop stop-color="#696969"/>
<stop offset="0.269894" stop-color="#868685"/>
<stop offset="0.773602" stop-color="#BBB9B9"/>
</linearGradient>
<linearGradient id="paint9_linear_1_4657" x1="18.6109" y1="8.20903" x2="10.6753" y2="19.3995" gradientUnits="userSpaceOnUse">
<stop stop-color="#8A8888"/>
<stop offset="0.270601" stop-color="#666565"/>
<stop offset="1" stop-color="#424141"/>
</linearGradient>
<radialGradient id="paint10_radial_1_4657" cx="0" cy="0" r="1" gradientUnits="userSpaceOnUse" gradientTransform="translate(18.9189 9.01239) rotate(95.3041) scale(10.3634 7.73251)">
<stop stop-color="#898887"/>
<stop offset="1" stop-color="#646060" stop-opacity="0"/>
</radialGradient>
<linearGradient id="paint11_linear_1_4657" x1="10.6768" y1="15.0765" x2="15.5604" y2="8.27785" gradientUnits="userSpaceOnUse">
<stop stop-color="#3B3B3B"/>
<stop offset="1" stop-color="#484848" stop-opacity="0"/>
</linearGradient>
<linearGradient id="paint12_linear_1_4657" x1="10.7429" y1="14.6706" x2="15.4912" y2="8.27631" gradientUnits="userSpaceOnUse">
<stop stop-color="#DEDEDE"/>
<stop offset="1" stop-color="#999999"/>
</linearGradient>
</defs>
</svg>
