<svg width="18" height="18" viewBox="0 0 18 18" fill="none" xmlns="http://www.w3.org/2000/svg">
<path d="M17.1255 1.75329C17.2353 1.63538 17.2951 1.47944 17.2923 1.31832C17.2895 1.15719 17.2242 1.00345 17.1102 0.889502C16.9963 0.77555 16.8425 0.710276 16.6814 0.707433C16.5203 0.70459 16.3643 0.7644 16.2464 0.874261L14.578 2.54275C13.8991 2.06154 13.0719 1.83603 12.2428 1.90615C11.4136 1.97627 10.6361 2.33749 10.0477 2.92587L9.16201 3.81236C8.89007 4.08449 8.73732 4.45345 8.73732 4.83816C8.73732 5.22287 8.89007 5.59184 9.16201 5.86397L12.1349 8.83772C12.2697 8.9725 12.4297 9.07941 12.6058 9.15235C12.7818 9.22529 12.9706 9.26283 13.1612 9.26283C13.3517 9.26283 13.5405 9.22529 13.7165 9.15235C13.8926 9.07941 14.0526 8.9725 14.1874 8.83772L15.073 7.95207C15.6615 7.36378 16.0229 6.58625 16.0932 5.75711C16.1635 4.92797 15.9381 4.10071 15.457 3.42177L17.1255 1.75329ZM14.1525 3.80572L14.1708 3.8248L14.1733 3.82646L14.1749 3.82894L14.194 3.84719C14.4059 4.05896 14.574 4.31041 14.6886 4.58716C14.8033 4.86391 14.8623 5.16055 14.8623 5.46011C14.8623 5.75968 14.8033 6.05632 14.6886 6.33307C14.574 6.60982 14.4059 6.86126 14.194 7.07304L13.3083 7.95787C13.2891 7.97718 13.2662 7.9925 13.241 8.00295C13.2158 8.0134 13.1888 8.01878 13.1616 8.01878C13.1343 8.01878 13.1073 8.0134 13.0821 8.00295C13.0569 7.9925 13.034 7.97718 13.0148 7.95787L10.041 4.98494C10.0217 4.96569 10.0064 4.94281 9.99596 4.91762C9.98551 4.89243 9.98013 4.86543 9.98013 4.83816C9.98013 4.81089 9.98551 4.78389 9.99596 4.75871C10.0064 4.73352 10.0217 4.71064 10.041 4.69138L10.9267 3.80572C11.1385 3.59385 11.3899 3.42577 11.6667 3.3111C11.9434 3.19643 12.2401 3.13741 12.5396 3.13741C12.8392 3.13741 13.1358 3.19643 13.4126 3.3111C13.6893 3.42577 13.9408 3.59385 14.1525 3.80572ZM8.00352 8.38743C8.06463 8.33049 8.11364 8.26183 8.14763 8.18554C8.18163 8.10924 8.1999 8.02689 8.20138 7.94338C8.20285 7.85987 8.18749 7.77692 8.15621 7.69947C8.12493 7.62203 8.07837 7.55168 8.01931 7.49262C7.96025 7.43356 7.8899 7.387 7.81246 7.35572C7.73501 7.32444 7.65206 7.30908 7.56855 7.31055C7.48504 7.31202 7.40268 7.3303 7.32639 7.3643C7.2501 7.39829 7.18144 7.4473 7.1245 7.50841L5.69815 8.93475L5.3084 8.54499C5.19178 8.42852 5.0337 8.3631 4.86889 8.3631C4.70407 8.3631 4.54599 8.42852 4.42937 8.54499L2.95742 10.0169C2.36892 10.6052 2.00755 11.3828 1.93727 12.2119C1.867 13.041 2.09237 13.8683 2.57347 14.5472L0.904984 16.2157C0.843878 16.2727 0.794867 16.3413 0.760873 16.4176C0.72688 16.4939 0.708601 16.5763 0.707128 16.6598C0.705655 16.7433 0.721016 16.8262 0.752297 16.9037C0.783578 16.9811 0.830137 17.0515 0.889196 17.1105C0.948256 17.1696 1.01861 17.2162 1.09605 17.2474C1.17349 17.2787 1.25644 17.2941 1.33995 17.2926C1.42346 17.2911 1.50582 17.2729 1.58211 17.2389C1.65841 17.2049 1.72707 17.1559 1.78401 17.0947L3.4525 15.4263C4.13143 15.9074 4.95869 16.1327 5.78783 16.0625C6.61697 15.9922 7.39451 15.6308 7.98279 15.0423L9.45474 13.5704C9.57121 13.4537 9.63663 13.2957 9.63663 13.1308C9.63663 12.966 9.57121 12.808 9.45474 12.6913L9.06498 12.3016L10.4913 10.8752C10.5524 10.8183 10.6014 10.7496 10.6354 10.6733C10.6694 10.597 10.6877 10.5147 10.6892 10.4312C10.6907 10.3477 10.6753 10.2647 10.644 10.1873C10.6127 10.1098 10.5662 10.0395 10.5071 9.98042C10.4481 9.92137 10.3777 9.87481 10.3003 9.84352C10.2228 9.81224 10.1399 9.79688 10.0564 9.79836C9.97285 9.79983 9.89049 9.81811 9.8142 9.8521C9.7379 9.88609 9.66924 9.93511 9.6123 9.99621L8.18596 11.4226L6.57718 9.81377L8.00352 8.38743ZM5.25533 10.2508L5.25864 10.2533L5.26113 10.2566L7.74313 12.7386L7.74645 12.7411L7.74894 12.7444L8.13537 13.1308L7.10376 14.1633C6.89199 14.3752 6.64054 14.5432 6.36379 14.6579C6.08704 14.7726 5.79041 14.8316 5.49084 14.8316C5.19127 14.8316 4.89464 14.7726 4.61789 14.6579C4.34113 14.5432 4.08969 14.3752 3.87791 14.1633L3.83645 14.1218C3.62457 13.91 3.4565 13.6586 3.34182 13.3818C3.22715 13.1051 3.16813 12.8085 3.16813 12.5089C3.16813 12.2093 3.22715 11.9127 3.34182 11.6359C3.4565 11.3592 3.62457 11.1077 3.83645 10.896L4.86889 9.86519L5.25533 10.2508Z" fill="#838383" fill-opacity="0.58"/>
</svg>
